<?xml version="1.0" encoding="UTF-8"?>
<svg width="20px" height="20px" viewBox="0 0 20 20" version="1.1" xmlns="http://www.w3.org/2000/svg" xmlns:xlink="http://www.w3.org/1999/xlink">
    <!-- Generator: Sketch 64 (93537) - https://sketch.com -->
    <title>Combined Shape</title>
    <desc>Created with Sketch.</desc>
    <g id="Page-1" stroke="none" stroke-width="1" fill="none" fill-rule="evenodd" opacity="0.537179129">
        <g id="מאגר-המידע" transform="translate(-1065.000000, -455.000000)" fill="#484747">
            <g id="filters" transform="translate(77.000000, 383.000000)">
                <path d="M996.834633,72 C1001.70347,72 1005.66661,75.7959456 1005.66838,80.4608938 C1005.66838,82.7041975 1004.75157,84.7460783 1003.25774,86.2613402 L1007.74078,90.5513796 C1008.08641,90.883196 1008.08641,91.4203821 1007.74078,91.7513499 C1007.56709,91.9176824 1007.34022,92 1007.11423,92 C1006.88736,92 1006.66049,91.9176824 1006.4868,91.7513499 L1001.91696,87.3747624 C1000.47831,88.3468774 998.724078,88.9183931 996.832861,88.9183931 C991.96402,88.9183931 988.001772,85.125842 988,80.4625911 C988.001772,75.7976429 991.96402,72.0008486 996.834633,72 Z M996.834633,73.6972706 C992.94151,73.6981192 989.774194,76.732839 989.772421,80.4625911 C989.774194,84.1889486 992.940624,87.2211225 996.832861,87.2211225 C1000.72776,87.2211225 1003.89596,84.1881 1003.89596,80.4608938 C1003.89419,76.7311417 1000.72687,73.6972706 996.834633,73.6972706 Z" id="Combined-Shape" transform="translate(998.000000, 82.000000) scale(-1, 1) translate(-998.000000, -82.000000) "></path>
            </g>
        </g>
    </g>
</svg>