<?xml version="1.0" encoding="UTF-8"?>
<svg width="17px" height="17px" viewBox="0 0 17 17" version="1.1" xmlns="http://www.w3.org/2000/svg" xmlns:xlink="http://www.w3.org/1999/xlink">
    <!-- Generator: Sketch 64 (93537) - https://sketch.com -->
    <title>Combined Shape</title>
    <desc>Created with Sketch.</desc>
    <g id="Page-1" stroke="none" stroke-width="1" fill="none" fill-rule="evenodd">
        <g id="דף-פריט" transform="translate(-989.000000, -1635.000000)" fill="#F7931D">
            <path d="M995.015373,1642.25766 C995.413646,1642.29241 995.707644,1642.64506 995.672162,1643.04261 C995.635955,1643.44087 995.296337,1643.74356 994.886478,1643.70011 C994.17031,1643.63711 993.465004,1643.88766 992.961008,1644.39237 L991.162261,1646.19326 C990.701713,1646.6538 990.448266,1647.26496 990.448266,1647.9145 C990.448266,1648.56476 990.701713,1649.17592 991.161537,1649.63646 L991.367191,1649.84356 C992.315081,1650.78854 993.859657,1650.79072 994.80972,1649.83994 L996.611363,1648.03977 C997.114635,1647.53578 997.366633,1646.83411 997.301461,1646.11578 C997.265255,1645.71751 997.559253,1645.36559 997.957526,1645.32938 C998.347109,1645.29173 998.708452,1645.58645 998.743934,1645.98544 C998.847485,1647.13317 998.443419,1648.25484 997.635287,1649.06368 L995.833644,1650.86385 C995.077649,1651.62128 994.08269,1652 993.088455,1652 C992.093496,1652 991.099262,1651.62201 990.341094,1650.8653 L990.135441,1650.65748 C989.404066,1649.92756 989,1648.95289 989,1647.9145 C989,1646.87683 989.404066,1645.90216 990.137613,1645.16935 L991.93636,1643.36846 C992.744492,1642.56034 993.861105,1642.15193 995.015373,1642.25766 Z M1000.90276,1639.55654 C1001.18589,1639.83967 1001.18589,1640.29804 1000.90276,1640.58045 L994.581074,1646.90204 C994.439869,1647.04324 994.25449,1647.11421 994.069112,1647.11421 C993.883734,1647.11421 993.698356,1647.04324 993.55715,1646.90204 C993.274014,1646.61891 993.274014,1646.16126 993.55715,1645.87813 L999.878832,1639.55654 C1000.16197,1639.27413 1000.62034,1639.27413 1000.90276,1639.55654 Z M1004.66135,1636.13615 L1004.86483,1636.33963 C1006.37899,1637.85594 1006.37827,1640.3194 1004.86338,1641.83282 L1003.06536,1643.63371 C1002.33833,1644.35856 1001.36003,1644.75827 1000.33828,1644.75827 C1000.22169,1644.75827 1000.10366,1644.75321 999.985622,1644.74307 C999.587349,1644.70686 999.293351,1644.35421 999.328834,1643.95667 C999.36504,1643.5584 999.719865,1643.25644 1000.11524,1643.29989 C1000.83575,1643.37013 1001.53599,1643.11379 1002.04071,1642.60908 L1003.83946,1640.80891 C1004.78952,1639.85959 1004.78952,1638.31431 1003.84091,1637.36354 L1003.63743,1637.16006 C1002.68664,1636.21073 1001.14206,1636.21073 1000.19345,1637.16006 L998.39253,1638.95878 C997.887809,1639.46422 997.635086,1640.16661 997.699534,1640.88422 C997.735741,1641.28249 997.441743,1641.63513 997.04347,1641.67062 C996.657507,1641.71334 996.293268,1641.41283 996.257061,1641.01456 C996.154234,1639.86755 996.559025,1638.74516 997.368605,1637.93487 L999.169524,1636.13615 C1000.68151,1634.62128 1003.14501,1634.62128 1004.66135,1636.13615 Z" id="Combined-Shape"></path>
        </g>
    </g>
</svg>