<?xml version="1.0" encoding="UTF-8"?>
<svg width="20px" height="15px" viewBox="0 0 20 15" version="1.1" xmlns="http://www.w3.org/2000/svg" xmlns:xlink="http://www.w3.org/1999/xlink">
    <!-- Generator: Sketch 64 (93537) - https://sketch.com -->
    <title>Group 3</title>
    <desc>Created with Sketch.</desc>
    <g id="Page-1" stroke="none" stroke-width="1" fill="none" fill-rule="evenodd">
        <g id="מה-במאגר?" transform="translate(-773.000000, -1363.000000)" fill="#FFFFFF">
            <g id="Group-2" transform="translate(-2.000000, 1298.000000)">
                <g id="Group">
                    <g id="footer">
                        <g id="Group-3" transform="translate(775.000000, 65.000000)">
                            <path d="M2.06197282,1.80722892 C1.88890346,1.80722892 1.74817534,1.95180723 1.74817534,2.13253012 L1.74817534,12.8674699 C1.74817534,13.0481928 1.88890346,13.1927711 2.06197282,13.1927711 L17.9389013,13.1927711 C18.1110965,13.1927711 18.2518247,13.0481928 18.2518247,12.8674699 L18.2518247,2.13253012 C18.2518247,1.95180723 18.1110965,1.80722892 17.9389013,1.80722892 L2.06197282,1.80722892 Z M17.9389013,15 L2.06197282,15 C0.924784756,15 0,14.0421687 0,12.8674699 L0,2.13253012 C0,0.957831325 0.924784756,0 2.06197282,0 L17.9389013,0 C19.0752152,0 20,0.957831325 20,2.13253012 L20,12.8674699 C20,14.0421687 19.0752152,15 17.9389013,15 L17.9389013,15 Z" id="Fill-706"></path>
                            <path d="M17.4534364,14 L1.54771119,14 C0.878696986,14 0.268352873,13.5937536 0.0292941312,12.984384 C-0.0363813473,12.8235782 0.0109049972,12.6373819 0.145758646,12.5188934 L6.35428054,7.16998254 C6.53554487,7.00917668 6.81225755,7.02610361 6.97250572,7.20383641 C7.13362956,7.37310574 7.11786744,7.64393667 6.93747879,7.79627906 L0.996912847,12.9166763 C1.13526919,13.0690187 1.3331713,13.1536534 1.54771119,13.1536534 L17.4534364,13.1536534 C17.6644736,13.1536534 17.8632514,13.0690187 18.0024834,12.9166763 L11.993615,7.7370348 C11.8132263,7.5846924 11.7974642,7.31386147 11.958588,7.14459215 C12.1179605,6.96685935 12.3955489,6.94993242 12.5768132,7.11073828 L18.8536376,12.5188934 C18.9884913,12.6373819 19.0357776,12.8235782 18.9718535,12.984384 C18.7336704,13.5937536 18.124202,14 17.4534364,14" id="Fill-707"></path>
                            <path d="M0.996912847,1.15211521 L9.5005738,8.94689469 L18.0024834,1.15211521 C17.8632514,0.99909991 17.6644736,0.900090009 17.4534364,0.900090009 L1.54771119,0.900090009 C1.3331713,0.900090009 1.13526919,0.99909991 0.996912847,1.15211521 Z M9.5005738,10 C9.39636871,10 9.29216362,9.9639964 9.20897468,9.8829883 L0.145758646,1.57515752 C0.0109049972,1.45814581 -0.0363813473,1.26012601 0.0292941312,1.08010801 C0.268352873,0.432043204 0.878696986,0 1.54771119,0 L17.4534364,0 C18.124202,0 18.7336704,0.432043204 18.9718535,1.08010801 C19.0357776,1.26012601 18.9884913,1.45814581 18.8536376,1.57515752 L9.79217292,9.8829883 C9.70898399,9.9639964 9.60477889,10 9.5005738,10 L9.5005738,10 Z" id="Fill-708"></path>
                        </g>
                    </g>
                </g>
            </g>
        </g>
    </g>
</svg>