<?xml version="1.0" encoding="UTF-8"?>
<svg width="20px" height="21px" viewBox="0 0 20 21" version="1.1" xmlns="http://www.w3.org/2000/svg" xmlns:xlink="http://www.w3.org/1999/xlink">
    <!-- Generator: Sketch 64 (93537) - https://sketch.com -->
    <title>bin</title>
    <desc>Created with Sketch.</desc>
    <g id="Page-1" stroke="none" stroke-width="1" fill="none" fill-rule="evenodd">
        <g id="מאגר-המידע" transform="translate(-311.000000, -691.000000)" fill="#FFFFFF">
            <g id="filters" transform="translate(77.000000, 383.000000)">
                <g id="bin" transform="translate(234.000000, 308.000000)">
                    <path d="M19.1208791,4 L0.879120879,4 C0.392967033,4 0,3.553 0,3 C0,2.447 0.392967033,2 0.879120879,2 L19.1208791,2 C19.6061538,2 20,2.447 20,3 C20,3.553 19.6061538,4 19.1208791,4" id="Fill-2756"></path>
                    <path d="M12.2714852,4 C12.0546496,2.81326182 11.0991626,1.95026816 10.0008814,1.95026816 C8.90171882,1.95026816 7.94535037,2.81326182 7.72763332,4 L6,3.6138469 C6.38342882,1.5192589 8.06522697,0 10.0008814,0 C11.9338916,0 13.6156897,1.5192589 14,3.6138469 L12.2714852,4" id="Fill-2757"></path>
                    <path d="M16.3711318,21 C16.3685211,21 16.3667806,21 16.3641698,21 L4.63060179,21 C3.71945103,21 2.9597236,20.2456898 2.90228717,19.2833245 L2.00157939,3.93682992 C1.97286117,3.44900723 2.33923603,3.03024111 2.81874326,3.00102487 C3.30086123,2.97800601 3.71074854,3.34542237 3.73859651,3.83324506 L4.63930428,19.1770836 L16.3676508,19.2293187 L17.2613966,3.83235972 C17.2892446,3.34365169 17.7130559,2.98154737 18.1821201,3.00102487 C18.6624976,3.03112645 19.0271319,3.44989257 18.9984137,3.93771526 L18.0977059,19.2815538 C18.0376588,20.2483458 17.2796718,21 16.3711318,21" id="Fill-2758"></path>
                    <path d="M7.24916492,18 C6.85371379,18 6.52279547,17.643863 6.5010344,17.1851102 L6.00128022,6.90887593 C5.977268,6.43287683 6.29392907,6.02672542 6.70813974,6.0008559 C7.11184508,5.98016029 7.47578019,6.33715962 7.49904202,6.81315872 L7.99879621,17.089393 C8.02205804,17.5653921 7.70539698,17.9715435 7.2911863,17.9982754 C7.27767943,17.9991377 7.26267179,18 7.24916492,18" id="Fill-2759"></path>
                    <path d="M13.7509115,18 C13.7366542,18 13.722397,17.9991377 13.7081397,17.9982754 C13.2939291,17.971544 12.977268,17.5653999 13.0012802,17.0894092 L13.5010344,6.81335783 C13.5235459,6.3373672 13.8792268,5.97778732 14.2911863,6.00106947 C14.705397,6.02693852 15.022058,6.4330827 14.9987962,6.90907334 L14.499042,17.1851247 C14.4765306,17.6438693 14.1456123,18 13.7509115,18" id="Fill-2760"></path>
                    <path d="M10,18 C9.447,18 9,17.6137099 9,17.1377452 L9,6.8622548 C9,6.38542789 9.447,6 10,6 C10.552,6 11,6.38542789 11,6.8622548 L11,17.1377452 C11,17.6137099 10.552,18 10,18" id="Fill-2761"></path>
                </g>
            </g>
        </g>
    </g>
</svg>